<svg width="26" height="26" viewBox="0 0 26 26" fill="none" xmlns="http://www.w3.org/2000/svg">
<g id="Layer 2" clip-path="url(#clip0_86_777)">
<g id="Layer 1">
<path id="Vector" d="M0 12.0996C0.0628846 11.6135 0.11445 11.1236 0.199973 10.6407C0.716255 7.72157 2.08651 5.26781 4.28747 3.28757C6.35763 1.42242 8.79629 0.338916 11.567 0.0678834C14.6955 -0.238993 17.5832 0.492983 20.1652 2.29651C22.9522 4.24593 24.752 6.89086 25.4255 10.225C26.2486 14.2999 25.3054 17.978 22.6322 21.1669C20.7613 23.4006 18.3642 24.8073 15.513 25.4185C14.9753 25.5336 14.4232 25.5789 13.878 25.6569C13.7874 25.6701 13.6981 25.6877 13.6088 25.7034H12.0996L11.5557 25.6405C8.78875 25.3318 6.35008 24.2759 4.28181 22.4108C2.08588 20.4375 0.715626 17.985 0.199344 15.0646C0.11445 14.5816 0.0628846 14.0924 0 13.6063V12.0996ZM24.6791 12.8454C24.6589 6.31735 19.3817 1.04134 12.8567 1.0275C6.35134 1.01367 1.00615 6.35949 1.02816 12.8605C1.04829 19.3879 6.32556 24.6639 12.8505 24.6784C19.3546 24.6922 24.6992 19.3464 24.6791 12.8454Z" fill="white"/>
<path id="Vector_2" d="M12.3439 15.1748C12.3005 14.4202 12.4464 13.6259 12.9998 12.9776C13.3137 12.6224 13.6731 12.3103 14.0688 12.0494C14.6109 11.6809 15.0479 11.2539 15.2737 10.6238C15.7705 9.23597 14.9593 7.67644 13.5381 7.29095C12.0829 6.89918 10.6039 7.81541 10.3366 9.2781C10.3096 9.42525 10.3027 9.57618 10.287 9.72584C10.2511 10.0755 10.0191 10.3031 9.72853 10.2736C9.42354 10.2434 9.23929 9.99688 9.25816 9.64472C9.37827 7.42049 11.2925 5.86976 13.4909 6.22569C15.0316 6.47723 16.3126 7.86886 16.4207 9.42714C16.5213 10.8785 15.9631 12.0081 14.7461 12.816C14.5403 12.9436 14.3415 13.0821 14.1506 13.231C13.9037 13.427 13.7046 13.6764 13.5681 13.9605C13.4316 14.2446 13.3614 14.5559 13.3626 14.8711C13.3582 15.2056 13.3626 15.5402 13.3626 15.8772C13.357 16.2237 13.1576 16.4463 12.8596 16.4495C12.5615 16.4526 12.3565 16.2281 12.3458 15.8885C12.3395 15.6772 12.3439 15.4697 12.3439 15.1748Z" fill="white"/>
<path id="Vector_3" d="M13.8741 18.5417C13.8658 18.742 13.7986 18.9354 13.681 19.0978C13.5634 19.2602 13.4006 19.3843 13.2128 19.4546C13.0251 19.525 12.8208 19.5384 12.6254 19.4933C12.4301 19.4482 12.2523 19.3465 12.1145 19.2009C11.9766 19.0554 11.8847 18.8724 11.8502 18.6749C11.8157 18.4774 11.8402 18.2742 11.9205 18.0905C12.0009 17.9068 12.1337 17.7509 12.3022 17.6423C12.4707 17.5336 12.6674 17.477 12.8679 17.4796C13.004 17.4822 13.1383 17.512 13.2628 17.567C13.3873 17.622 13.4997 17.7012 13.5933 17.8001C13.6869 17.8989 13.7599 18.0154 13.8081 18.1427C13.8564 18.27 13.8788 18.4056 13.8741 18.5417Z" fill="white"/>
</g>
</g>
<defs>
<clipPath id="clip0_86_777">
<rect width="25.7136" height="25.7034" fill="white"/>
</clipPath>
</defs>
</svg>
