<svg width="101" height="27" viewBox="0 0 101 27" fill="none" xmlns="http://www.w3.org/2000/svg">
<g id="Group 58">
<rect id="Rectangle 39" x="70.5" y="0.5" width="29.0522" height="25.1565" rx="4.5" stroke="#168356"/>
<rect id="Rectangle 40" x="0.5" y="0.5" width="29.0522" height="25.1565" rx="4.5" stroke="#168356"/>
<g id="thumbs-up-regular 1">
<path id="Vector" d="M17.2067 6.6619C16.0026 6.31831 14.7449 7.01494 14.4013 8.21907L14.2216 8.84951C14.105 9.25929 13.8938 9.63755 13.607 9.95277L11.9899 11.7306C11.7093 12.0395 11.7314 12.5186 12.0403 12.7992C12.3492 13.0797 12.8284 13.0577 13.1089 12.7487L14.726 10.9709C15.1704 10.4823 15.4951 9.89918 15.6748 9.2656L15.8545 8.63516C15.9679 8.23484 16.3872 8.00157 16.7907 8.11505C17.1941 8.22853 17.4242 8.64777 17.3108 9.05125L17.1311 9.68168C16.9514 10.309 16.6677 10.9016 16.2926 11.4311C16.1287 11.6612 16.1098 11.9639 16.239 12.216C16.3683 12.4682 16.6267 12.6258 16.9104 12.6258H21.1217C21.3991 12.6258 21.6261 12.8528 21.6261 13.1302C21.6261 13.3445 21.4905 13.5305 21.2983 13.603C21.065 13.6912 20.8885 13.8867 20.8286 14.1294C20.7687 14.3721 20.8317 14.6274 20.9957 14.8134C21.0745 14.9017 21.1217 15.0183 21.1217 15.1476C21.1217 15.3934 20.9452 15.5983 20.712 15.6424C20.4535 15.6929 20.236 15.8726 20.1446 16.1184C20.0532 16.3643 20.0941 16.6448 20.258 16.8529C20.3242 16.938 20.3652 17.0452 20.3652 17.1649C20.3652 17.3761 20.2328 17.5621 20.0437 17.6346C19.6812 17.7765 19.4858 18.1673 19.5898 18.5424C19.6024 18.5834 19.6087 18.6307 19.6087 18.678C19.6087 18.9554 19.3817 19.1823 19.1043 19.1823H16.031C15.6338 19.1823 15.2429 19.0657 14.912 18.8451L12.9671 17.5495C12.6203 17.3162 12.1507 17.4108 11.9174 17.7607C11.6841 18.1106 11.7787 18.5771 12.1286 18.8104L14.0735 20.1059C14.6535 20.4936 15.3343 20.6985 16.031 20.6985H19.1043C20.1982 20.6985 21.0871 19.8285 21.1217 18.7442C21.582 18.3754 21.8783 17.808 21.8783 17.1681C21.8783 17.0262 21.8625 16.8907 21.8373 16.7583C22.3227 16.3895 22.6348 15.8064 22.6348 15.1507C22.6348 14.9458 22.6033 14.7472 22.5465 14.5612C22.9122 14.1924 23.1391 13.6881 23.1391 13.1302C23.1391 12.0174 22.2376 11.1128 21.1217 11.1128H18.2123C18.3604 10.7849 18.4865 10.4445 18.5842 10.0978L18.7639 9.46734C19.1075 8.26321 18.4109 7.00549 17.2067 6.6619ZM8.0087 11.6171C7.45076 11.6171 7 12.0679 7 12.6258V19.6867C7 20.2446 7.45076 20.6954 8.0087 20.6954H10.0261C10.584 20.6954 11.0348 20.2446 11.0348 19.6867V12.6258C11.0348 12.0679 10.584 11.6171 10.0261 11.6171H8.0087Z" fill="#168356"/>
</g>
<path id="Vector_2" d="M86.8864 20.5036C85.6823 20.8472 84.4246 20.1506 84.081 18.9465L83.9013 18.316C83.7847 17.9062 83.5735 17.528 83.2866 17.2128L81.6696 15.4349C81.389 15.126 81.4111 14.6469 81.72 14.3663C82.0289 14.0858 82.5081 14.1079 82.7886 14.4168L84.4057 16.1946C84.8501 16.6832 85.1748 17.2663 85.3545 17.8999L85.5341 18.5304C85.6476 18.9307 86.0669 19.164 86.4703 19.0505C86.8738 18.937 87.1039 18.5178 86.9904 18.1143L86.8108 17.4838C86.6311 16.8566 86.3474 16.264 85.9723 15.7344C85.8084 15.5043 85.7895 15.2017 85.9187 14.9495C86.0479 14.6973 86.3064 14.5397 86.5901 14.5397H90.8014C91.0788 14.5397 91.3058 14.3128 91.3058 14.0354C91.3058 13.821 91.1702 13.635 90.9779 13.5625C90.7447 13.4743 90.5682 13.2788 90.5083 13.0361C90.4484 12.7934 90.5114 12.5381 90.6753 12.3521C90.7541 12.2638 90.8014 12.1472 90.8014 12.018C90.8014 11.7721 90.6249 11.5672 90.3916 11.5231C90.1332 11.4726 89.9157 11.293 89.8243 11.0471C89.7328 10.8012 89.7738 10.5207 89.9377 10.3126C90.0039 10.2275 90.0449 10.1204 90.0449 10.0006C90.0449 9.78939 89.9125 9.60341 89.7234 9.53091C89.3609 9.38906 89.1654 8.99819 89.2695 8.62308C89.2821 8.5821 89.2884 8.53482 89.2884 8.48754C89.2884 8.21015 89.0614 7.98319 88.784 7.98319H85.7107C85.3135 7.98319 84.9226 8.09982 84.5916 8.32047L82.6468 9.61602C82.3 9.84928 81.8303 9.75471 81.5971 9.40482C81.3638 9.05493 81.4584 8.58841 81.8083 8.35515L83.7532 7.0596C84.3332 6.67189 85.014 6.46699 85.7107 6.46699H88.784C89.8778 6.46699 90.7668 7.33699 90.8014 8.42134C91.2616 8.79015 91.5579 9.35754 91.5579 9.99743C91.5579 10.1393 91.5422 10.2748 91.517 10.4072C92.0024 10.776 92.3145 11.3592 92.3145 12.0148C92.3145 12.2197 92.2829 12.4183 92.2262 12.6043C92.5919 12.9731 92.8188 13.4774 92.8188 14.0354C92.8188 15.1481 91.9173 16.0528 90.8014 16.0528H87.892C88.0401 16.3806 88.1662 16.721 88.2639 17.0678L88.4436 17.6982C88.7872 18.9023 88.0906 20.16 86.8864 20.5036ZM77.6884 15.5484C77.1304 15.5484 76.6797 15.0976 76.6797 14.5397V7.47884C76.6797 6.92091 77.1304 6.47015 77.6884 6.47015H79.7058C80.2637 6.47015 80.7145 6.92091 80.7145 7.47884V14.5397C80.7145 15.0976 80.2637 15.5484 79.7058 15.5484H77.6884Z" fill="#168356"/>
</g>
</svg>
