<svg width="26" height="26" viewBox="0 0 26 26" fill="none" xmlns="http://www.w3.org/2000/svg">
<g id="Layer 2" clip-path="url(#clip0_86_788)">
<g id="Layer 1">
<path id="Vector" d="M0 11.8542C0.176706 11.3725 0.286125 10.8481 0.543323 10.4173C1.16714 9.36964 2.13808 8.78733 3.35552 8.75714C5.07856 8.71312 6.80285 8.74079 8.52715 8.74331C8.85541 8.74331 9.07864 8.95271 9.08368 9.23507C9.08996 9.53377 8.85415 9.7438 8.49319 9.74443C6.89466 9.74695 5.29635 9.74695 3.69824 9.74443C2.07519 9.74695 1.00615 10.816 1.00615 12.4265C1.00615 14.8949 1.00615 17.3633 1.00615 19.8317C1.00615 21.4171 2.08399 22.4974 3.66365 22.4987C4.65975 22.4987 5.65521 22.5018 6.6513 22.4987C6.89529 22.4987 7.06382 22.5873 7.23361 22.7716C7.60526 23.1759 8.01401 23.5463 8.43785 23.9595C8.43785 23.6664 8.43785 23.3935 8.43785 23.1256C8.44162 22.6854 8.6265 22.5025 9.06984 22.5018C10.7853 22.5018 12.5008 22.5018 14.2163 22.5018C15.784 22.5018 16.87 21.4196 16.8713 19.8607C16.8713 18.8126 16.8713 17.7666 16.8713 16.7227C16.8676 16.6224 16.8749 16.5221 16.8933 16.4234C16.9154 16.3134 16.9746 16.2143 17.0611 16.1428C17.1476 16.0713 17.256 16.0317 17.3682 16.0308C17.4804 16.0298 17.5896 16.0675 17.6772 16.1375C17.7649 16.2075 17.8259 16.3056 17.8498 16.4152C17.8678 16.4967 17.8758 16.5802 17.8737 16.6636C17.8737 17.7685 17.8819 18.8734 17.8737 19.9776C17.8598 21.6755 16.7499 23.0514 15.0967 23.4212C14.8102 23.4803 14.5182 23.5083 14.2257 23.5048C12.6448 23.5124 11.0633 23.5086 9.44086 23.5086V24.1815C9.44086 24.4657 9.42703 24.7512 9.44463 25.0348C9.46287 25.3417 9.36351 25.5706 9.08934 25.7177H8.78812C8.62085 25.57 8.44603 25.4291 8.28504 25.2725C7.74361 24.7386 7.21286 24.194 6.66576 23.6671C6.56563 23.5759 6.43693 23.5223 6.30166 23.5155C5.32444 23.5017 4.34595 23.5356 3.36998 23.4967C2.14311 23.4476 1.16902 22.886 0.540178 21.8302C0.284867 21.3919 0.176077 20.8706 0 20.3895V11.8542Z" fill="white"/>
<path id="Vector_2" d="M17.796 0.00500321C18.8398 -0.0232948 19.8711 0.0615993 20.8553 0.436391C23.2883 1.36268 24.8893 3.07754 25.4874 5.60865C26.137 8.35608 25.3654 10.7325 23.3191 12.6775C23.0871 12.8976 22.9802 13.1026 22.9896 13.4233C23.0122 14.2006 22.994 14.9791 22.9984 15.7576C22.9984 16.0091 22.9462 16.228 22.6928 16.3361C22.4293 16.4487 22.2274 16.3286 22.0438 16.1475C21.5005 15.6016 20.9521 15.0621 20.4126 14.5125C20.3712 14.4632 20.3163 14.4269 20.2547 14.4082C20.1931 14.3894 20.1273 14.3889 20.0655 14.4068C18.4273 14.7062 16.7848 14.7483 15.1674 14.315C13.4066 13.844 12.0332 12.8058 11.0352 11.2846C10.1179 9.91636 9.71034 8.26931 9.88382 6.63115C10.0819 4.56854 11.0044 2.88386 12.6143 1.59095C13.9833 0.49173 15.568 -0.00568717 17.3174 0.00500321H17.796ZM21.9929 14.6804C21.9929 14.1622 22.0293 13.7164 21.9834 13.2787C21.9206 12.7077 22.1532 12.3461 22.5827 11.982C23.7876 10.9633 24.4642 9.62886 24.6504 8.06618C24.8554 6.34251 24.4208 4.77794 23.3443 3.41272C22.3463 2.14748 21.0458 1.3457 19.4454 1.11743C18.6801 1.00801 17.8953 1.02059 17.1187 1.01367C16.237 1.00028 15.364 1.18938 14.5668 1.56643C12.5275 2.53799 11.2641 4.13149 10.934 6.37207C10.5856 8.73716 11.3962 10.7023 13.2343 12.2203C14.2914 13.0932 15.5321 13.5371 16.9042 13.583C17.9821 13.617 19.0637 13.6698 20.1164 13.3573C20.4264 13.2648 20.6635 13.3296 20.8836 13.5629C21.2269 13.9245 21.5866 14.2748 21.9916 14.6804H21.9929Z" fill="white"/>
<path id="Vector_3" d="M8.48459 16.5739H3.41421C3.33026 16.577 3.24619 16.574 3.16267 16.5651C3.03936 16.5543 2.92457 16.4976 2.84095 16.4064C2.75732 16.3151 2.71094 16.1958 2.71094 16.072C2.71094 15.9483 2.75732 15.829 2.84095 15.7377C2.92457 15.6464 3.03936 15.5898 3.16267 15.579C3.24617 15.5698 3.33026 15.5668 3.41421 15.5702H13.6562C14.0631 15.5702 14.3052 15.7589 14.3052 16.0733C14.3052 16.3877 14.0631 16.5764 13.6556 16.5764L8.48459 16.5739Z" fill="white"/>
<path id="Vector_4" d="M7.52278 19.3865H3.40761C3.31574 19.39 3.22374 19.385 3.13281 19.3714C3.01465 19.3542 2.90675 19.2946 2.82917 19.2039C2.75159 19.1131 2.70959 18.9972 2.71097 18.8778C2.71235 18.7584 2.75703 18.6436 2.83669 18.5546C2.91636 18.4657 3.0256 18.4087 3.14413 18.3942C3.21011 18.3845 3.2768 18.3805 3.34347 18.3822C6.12842 18.3822 8.91358 18.3822 11.6989 18.3822C12.1001 18.3822 12.3397 18.5847 12.3278 18.9029C12.3158 19.1897 12.0995 19.3802 11.7618 19.384C11.2267 19.3896 10.6928 19.384 10.1558 19.384L7.52278 19.3865Z" fill="white"/>
<path id="Vector_5" d="M6.90456 12.7579H10.3437C10.4277 12.7545 10.5118 12.7574 10.5953 12.7667C10.7186 12.7775 10.8334 12.8341 10.917 12.9254C11.0006 13.0166 11.047 13.1359 11.047 13.2597C11.047 13.3835 11.0006 13.5028 10.917 13.594C10.8334 13.6853 10.7186 13.7419 10.5953 13.7527C10.5117 13.7617 10.4277 13.7646 10.3437 13.7615H3.36479C2.95793 13.7615 2.71582 13.5729 2.71582 13.2584C2.71582 12.944 2.95793 12.7554 3.36542 12.7554C4.54513 12.7562 5.72485 12.757 6.90456 12.7579Z" fill="white"/>
<path id="Vector_6" d="M14.3056 18.875C14.3073 18.9735 14.2798 19.0703 14.2265 19.1531C14.1732 19.2359 14.0966 19.3011 14.0063 19.3404C13.916 19.3797 13.816 19.3913 13.7191 19.3738C13.6222 19.3563 13.5326 19.3105 13.4617 19.242C13.3909 19.1736 13.3419 19.0858 13.3209 18.9895C13.3 18.8933 13.3081 18.793 13.3442 18.7013C13.3802 18.6097 13.4427 18.5308 13.5236 18.4746C13.6045 18.4184 13.7003 18.3875 13.7987 18.3857C13.9294 18.3882 14.0542 18.4401 14.1482 18.5308C14.2423 18.6216 14.2985 18.7445 14.3056 18.875Z" fill="white"/>
<path id="Vector_7" d="M17.4194 8.22697C17.4194 8.03454 17.4144 7.84148 17.4194 7.64969C17.42 7.45585 17.4819 7.26716 17.5962 7.11061C17.7105 6.95406 17.8714 6.83768 18.0558 6.77811C18.1338 6.74981 18.2143 6.72717 18.2929 6.69824C18.5436 6.60936 18.7543 6.43372 18.8868 6.20305C19.0193 5.97239 19.065 5.70192 19.0154 5.44055C18.9634 5.18022 18.8216 4.94645 18.6146 4.78011C18.4077 4.61378 18.1489 4.52547 17.8835 4.53061C17.6183 4.53827 17.3646 4.64076 17.1684 4.81948C16.9723 4.9982 16.8467 5.24131 16.8145 5.50469C16.8044 5.5789 16.7931 5.65373 16.778 5.7273C16.7195 6.00777 16.5151 6.16247 16.2391 6.13668C15.9875 6.11279 15.8096 5.91156 15.7989 5.64304C15.7681 4.78404 16.4277 3.8741 17.2603 3.63073C18.7161 3.20186 20.0719 4.24511 20.0335 5.76378C20.0128 6.57373 19.4424 7.36671 18.6627 7.62768C18.4627 7.69433 18.4073 7.78615 18.4187 7.98172C18.435 8.25715 18.4287 8.53384 18.4187 8.80991C18.4086 9.15577 18.2017 9.38341 17.9124 9.38216C17.6232 9.3809 17.4238 9.15326 17.4169 8.80613C17.4131 8.61433 17.4169 8.42191 17.4169 8.22948L17.4194 8.22697Z" fill="white"/>
<path id="Vector_8" d="M18.4138 10.8553C18.4139 10.9859 18.3631 11.1115 18.2723 11.2054C18.1815 11.2993 18.0577 11.3541 17.9271 11.3584C17.8622 11.3606 17.7974 11.35 17.7367 11.3271C17.6759 11.3042 17.6203 11.2694 17.573 11.2249C17.5257 11.1803 17.4878 11.1268 17.4614 11.0675C17.4349 11.0081 17.4205 10.9441 17.419 10.8792C17.4176 10.7483 17.4672 10.622 17.5574 10.5272C17.6476 10.4323 17.7711 10.3763 17.9019 10.3711C18.033 10.3711 18.1591 10.4212 18.2543 10.5113C18.3495 10.6013 18.4066 10.7245 18.4138 10.8553Z" fill="white"/>
</g>
</g>
<defs>
<clipPath id="clip0_86_788">
<rect width="25.7122" height="25.7179" fill="white"/>
</clipPath>
</defs>
</svg>
