<svg width="20" height="26" viewBox="0 0 20 26" fill="none" xmlns="http://www.w3.org/2000/svg">
<g id="location-dot-solid 1">
<path id="Vector" d="M19.0506 9.7753C19.0506 10.7893 18.7077 12.0463 18.1184 13.4423C17.5326 14.83 16.7203 16.3158 15.8201 17.7761C14.0201 20.6959 11.8926 23.4752 10.5918 25.1031C10.1658 25.6323 9.38483 25.6323 8.95879 25.1031C7.65802 23.4752 5.53049 20.6959 3.73051 17.7761C2.83032 16.3158 2.01804 14.83 1.4322 13.4423C0.842868 12.0463 0.5 10.7893 0.5 9.7753C0.5 4.65466 4.65466 0.5 9.7753 0.5C14.8959 0.5 19.0506 4.65466 19.0506 9.7753ZM12.4329 7.11768C11.7281 6.41284 10.7721 6.01686 9.7753 6.01686C8.7785 6.01686 7.82253 6.41284 7.11768 7.11768C6.41284 7.82253 6.01686 8.7785 6.01686 9.7753C6.01686 10.7721 6.41284 11.7281 7.11768 12.4329C7.82253 13.1378 8.7785 13.5337 9.7753 13.5337C10.7721 13.5337 11.7281 13.1378 12.4329 12.4329C13.1378 11.7281 13.5337 10.7721 13.5337 9.7753C13.5337 8.7785 13.1378 7.82253 12.4329 7.11768Z" stroke="#00FF96"/>
</g>
</svg>
