<svg width="25" height="25" viewBox="0 0 25 25" fill="none" xmlns="http://www.w3.org/2000/svg">
<g id="Layer 2" clip-path="url(#clip0_86_783)">
<g id="Layer 1">
<path id="Vector" d="M3.32062 20.3379C3.32062 20.9806 3.32062 21.6248 3.32062 22.2704C3.32062 22.3723 3.33508 22.4748 3.32942 22.576C3.30804 22.9395 3.05147 23.1879 2.70749 23.1835C2.36351 23.1791 2.12833 22.9445 2.1126 22.5817C2.07613 21.7069 2.05412 20.8322 2.01765 19.9575C1.99627 19.4494 1.96483 18.9413 1.92772 18.4338C1.92278 18.3447 1.93684 18.2556 1.96898 18.1724C2.00111 18.0892 2.05058 18.0138 2.1141 17.9512C2.17762 17.8885 2.25374 17.8401 2.3374 17.8092C2.42106 17.7782 2.51034 17.7654 2.59933 17.7716C3.24243 17.811 3.88595 17.8446 4.52989 17.8722C5.21722 17.8999 5.90517 17.9156 6.59313 17.9383C6.67757 17.9404 6.7617 17.9494 6.84467 17.9653C6.99359 17.9903 7.12725 18.0714 7.21805 18.1921C7.30886 18.3127 7.34988 18.4636 7.33265 18.6136C7.32636 18.7598 7.26408 18.8979 7.15872 18.9994C7.05336 19.1009 6.91299 19.158 6.76669 19.1589C6.26362 19.162 5.76494 19.1324 5.26375 19.1255C4.81475 19.1186 4.36576 19.1255 3.90733 19.1255C3.9265 19.1631 3.94924 19.1986 3.97525 19.2318C5.86178 21.2976 8.15456 22.6508 10.9479 23.0049C14.233 23.4187 17.1426 22.5018 19.5813 20.2449C21.5697 18.4061 22.7551 16.1184 23.1557 13.4357C23.2186 13.0169 23.2186 12.5887 23.2469 12.1655C23.2663 11.9089 23.3821 11.7121 23.6242 11.6083C23.7255 11.5623 23.838 11.5465 23.9481 11.5629C24.0582 11.5793 24.1613 11.6272 24.2448 11.7007C24.4291 11.8466 24.4656 12.0479 24.4637 12.2711C24.4552 13.4879 24.2426 14.6946 23.8348 15.8411C22.674 19.1236 20.6277 21.6856 17.4439 23.1583C13.2054 25.114 9.11795 24.6386 5.28199 22.0094C4.62107 21.5566 4.05134 20.9712 3.43947 20.4467C3.39168 20.4065 3.34514 20.3606 3.32062 20.3379Z" fill="#00FF96"/>
<path id="Vector_2" d="M21.1701 3.90936C21.1701 3.52639 21.1739 3.07174 21.1701 2.61771C21.1701 2.36303 21.1475 2.10835 21.1431 1.85366C21.1355 1.42605 21.3676 1.15124 21.7348 1.14307C22.1021 1.13489 22.3517 1.39461 22.3637 1.81782C22.4002 2.94974 22.4347 4.07663 22.4744 5.20541C22.4819 5.42614 22.5077 5.6456 22.5291 5.86507C22.5419 5.95607 22.5339 6.04878 22.5058 6.13628C22.4777 6.22377 22.4302 6.30378 22.3668 6.37032C22.3034 6.43685 22.2258 6.48818 22.1398 6.52048C22.0538 6.55277 21.9615 6.56519 21.87 6.5568C21.3456 6.52096 20.8211 6.48637 20.2979 6.46562C19.4804 6.43418 18.668 6.41468 17.853 6.39204C17.5744 6.38387 17.3304 6.31344 17.1952 6.04052C16.9914 5.62862 17.2763 5.1702 17.7524 5.16894C18.2284 5.16768 18.7032 5.19849 19.1786 5.20604C19.6357 5.21296 20.0935 5.20604 20.5847 5.20604C20.5092 5.11863 20.4394 5.03059 20.3621 4.94884C18.4912 2.96798 16.2425 1.67256 13.5253 1.32606C10.4483 0.933662 7.67196 1.72601 5.29366 3.73077C3.1122 5.56763 1.80545 7.92328 1.33822 10.7405C1.26653 11.1744 1.2527 11.6209 1.2244 12.0611C1.19359 12.5271 0.955885 12.7968 0.576691 12.7748C0.207558 12.7534 -0.0137956 12.4642 0.00066788 12.0202C0.100026 9.04451 1.17284 6.44612 3.09144 4.19611C4.9937 1.96057 7.40596 0.59157 10.3062 0.147605C13.4033 -0.326545 16.2689 0.346949 18.8654 2.09137C19.6829 2.64098 20.4218 3.31447 21.1701 3.90936Z" fill="#00FF96"/>
</g>
</g>
<defs>
<clipPath id="clip0_86_783">
<rect width="24.4641" height="24.357" fill="white"/>
</clipPath>
</defs>
</svg>
